<mxfile host="app.diagrams.net" modified="2021-10-14T11:23:07.350Z" agent="5.0 (Macintosh; Intel Mac OS X 10_15_7) AppleWebKit/537.36 (KHTML, like Gecko) Chrome/94.0.4606.71 Safari/537.36" etag="T5kpEn1nJ71NR1GuPzfT" version="15.2.7" type="github" pages="2">
  <diagram name="Page-1" id="9f46799a-70d6-7492-0946-bef42562c5a5">
    <mxGraphModel dx="1426" dy="737" grid="1" gridSize="10" guides="1" tooltips="1" connect="1" arrows="1" fold="1" page="1" pageScale="1" pageWidth="1100" pageHeight="850" background="#FFFFFF" math="0" shadow="0">
      <root>
        <mxCell id="0" />
        <mxCell id="1" parent="0" />
        <mxCell id="S2QaWsW8-3YmJMbBKtvB-69" style="edgeStyle=orthogonalEdgeStyle;curved=0;rounded=1;sketch=0;orthogonalLoop=1;jettySize=auto;html=1;entryX=0.5;entryY=1;entryDx=0;entryDy=0;fontFamily=Helvetica;fontSize=18;fontColor=#000000;strokeColor=#0B4D6A;" parent="1" source="S2QaWsW8-3YmJMbBKtvB-46" target="S2QaWsW8-3YmJMbBKtvB-42" edge="1">
          <mxGeometry relative="1" as="geometry" />
        </mxCell>
        <mxCell id="S2QaWsW8-3YmJMbBKtvB-46" value="" style="rounded=1;whiteSpace=wrap;html=1;labelBackgroundColor=none;sketch=0;fontFamily=Helvetica;fontSize=18;strokeColor=#82b366;fillColor=#d5e8d4;" parent="1" vertex="1">
          <mxGeometry x="699.88" y="435" width="120" height="205" as="geometry" />
        </mxCell>
        <mxCell id="S2QaWsW8-3YmJMbBKtvB-70" style="edgeStyle=orthogonalEdgeStyle;curved=0;rounded=1;sketch=0;orthogonalLoop=1;jettySize=auto;html=1;entryX=0.5;entryY=0;entryDx=0;entryDy=0;fontFamily=Helvetica;fontSize=18;fontColor=#000000;strokeColor=#0B4D6A;" parent="1" source="S2QaWsW8-3YmJMbBKtvB-45" target="S2QaWsW8-3YmJMbBKtvB-42" edge="1">
          <mxGeometry relative="1" as="geometry" />
        </mxCell>
        <mxCell id="S2QaWsW8-3YmJMbBKtvB-45" value="" style="rounded=1;whiteSpace=wrap;html=1;labelBackgroundColor=none;sketch=0;fontFamily=Helvetica;fontSize=18;strokeColor=#82b366;fillColor=#d5e8d4;" parent="1" vertex="1">
          <mxGeometry x="699.88" y="290" width="120" height="140" as="geometry" />
        </mxCell>
        <mxCell id="S2QaWsW8-3YmJMbBKtvB-47" value="&lt;span style=&quot;font-size: 15px&quot;&gt;触发键盘处理函数&lt;/span&gt;" style="edgeStyle=orthogonalEdgeStyle;curved=0;rounded=1;sketch=0;orthogonalLoop=1;jettySize=auto;html=1;fontFamily=Helvetica;fontSize=18;fontColor=#000000;strokeColor=#0B4D6A;entryX=0.5;entryY=0;entryDx=0;entryDy=0;" parent="1" source="S2QaWsW8-3YmJMbBKtvB-9" target="S2QaWsW8-3YmJMbBKtvB-32" edge="1">
          <mxGeometry relative="1" as="geometry">
            <mxPoint x="180" y="370" as="targetPoint" />
            <Array as="points">
              <mxPoint x="180" y="360" />
              <mxPoint x="180" y="360" />
            </Array>
          </mxGeometry>
        </mxCell>
        <mxCell id="S2QaWsW8-3YmJMbBKtvB-9" value="键盘检测" style="rounded=0;whiteSpace=wrap;html=1;labelBackgroundColor=none;sketch=0;fontSize=18;fontColor=#EEEEEE;strokeColor=#E6E6E6;fillColor=#FF0000;fontStyle=1;fontFamily=Helvetica;" parent="1" vertex="1">
          <mxGeometry x="130" y="240" width="100" height="50" as="geometry" />
        </mxCell>
        <mxCell id="S2QaWsW8-3YmJMbBKtvB-11" value="容器" style="rounded=0;whiteSpace=wrap;html=1;labelBackgroundColor=none;sketch=0;fontSize=18;fontColor=#EEEEEE;strokeColor=#E6E6E6;fillColor=#FF0000;fontStyle=1;fontFamily=Helvetica;" parent="1" vertex="1">
          <mxGeometry x="709.88" y="445" width="100" height="40" as="geometry" />
        </mxCell>
        <mxCell id="S2QaWsW8-3YmJMbBKtvB-14" value="弹窗" style="rounded=0;whiteSpace=wrap;html=1;labelBackgroundColor=none;sketch=0;fontSize=18;fontColor=#EEEEEE;strokeColor=#E6E6E6;fillColor=#FF0000;fontStyle=1;fontFamily=Helvetica;" parent="1" vertex="1">
          <mxGeometry x="709.88" y="515" width="100" height="40" as="geometry" />
        </mxCell>
        <mxCell id="S2QaWsW8-3YmJMbBKtvB-15" value="单据查询页面底部" style="rounded=0;whiteSpace=wrap;html=1;labelBackgroundColor=none;sketch=0;fontSize=18;fontColor=#EEEEEE;strokeColor=#E6E6E6;fillColor=#FF0000;fontStyle=1;fontFamily=Helvetica;" parent="1" vertex="1">
          <mxGeometry x="709.88" y="310" width="100" height="40" as="geometry" />
        </mxCell>
        <mxCell id="S2QaWsW8-3YmJMbBKtvB-17" value="开单查询页面底部" style="rounded=0;whiteSpace=wrap;html=1;labelBackgroundColor=none;sketch=0;fontSize=18;fontColor=#EEEEEE;strokeColor=#E6E6E6;fillColor=#FF0000;fontStyle=1;fontFamily=Helvetica;" parent="1" vertex="1">
          <mxGeometry x="709.88" y="370" width="100" height="40" as="geometry" />
        </mxCell>
        <mxCell id="S2QaWsW8-3YmJMbBKtvB-18" value="多弹窗" style="rounded=0;whiteSpace=wrap;html=1;labelBackgroundColor=none;sketch=0;fontSize=18;fontColor=#EEEEEE;strokeColor=#E6E6E6;fillColor=#FF0000;fontStyle=1;fontFamily=Helvetica;" parent="1" vertex="1">
          <mxGeometry x="709.88" y="585" width="100" height="40" as="geometry" />
        </mxCell>
        <mxCell id="S2QaWsW8-3YmJMbBKtvB-38" style="edgeStyle=orthogonalEdgeStyle;curved=0;rounded=1;sketch=0;orthogonalLoop=1;jettySize=auto;html=1;fontFamily=Helvetica;fontSize=18;strokeColor=#0B4D6A;" parent="1" source="S2QaWsW8-3YmJMbBKtvB-32" target="S2QaWsW8-3YmJMbBKtvB-35" edge="1">
          <mxGeometry relative="1" as="geometry" />
        </mxCell>
        <mxCell id="S2QaWsW8-3YmJMbBKtvB-40" value="弹起" style="edgeLabel;html=1;align=center;verticalAlign=middle;resizable=0;points=[];fontSize=18;fontFamily=Helvetica;fontColor=#000000;" parent="S2QaWsW8-3YmJMbBKtvB-38" vertex="1" connectable="0">
          <mxGeometry x="-0.1909" relative="1" as="geometry">
            <mxPoint x="-1" as="offset" />
          </mxGeometry>
        </mxCell>
        <mxCell id="S2QaWsW8-3YmJMbBKtvB-52" style="edgeStyle=orthogonalEdgeStyle;curved=0;rounded=1;sketch=0;orthogonalLoop=1;jettySize=auto;html=1;entryX=0;entryY=0.5;entryDx=0;entryDy=0;fontFamily=Helvetica;fontSize=18;fontColor=#000000;strokeColor=#0B4D6A;" parent="1" source="S2QaWsW8-3YmJMbBKtvB-32" target="S2QaWsW8-3YmJMbBKtvB-51" edge="1">
          <mxGeometry relative="1" as="geometry" />
        </mxCell>
        <mxCell id="S2QaWsW8-3YmJMbBKtvB-53" value="回落" style="edgeLabel;html=1;align=center;verticalAlign=middle;resizable=0;points=[];fontSize=18;fontFamily=Helvetica;fontColor=#000000;" parent="S2QaWsW8-3YmJMbBKtvB-52" vertex="1" connectable="0">
          <mxGeometry x="-0.0941" y="1" relative="1" as="geometry">
            <mxPoint as="offset" />
          </mxGeometry>
        </mxCell>
        <mxCell id="S2QaWsW8-3YmJMbBKtvB-32" value="键盘" style="rhombus;whiteSpace=wrap;html=1;rounded=0;labelBackgroundColor=none;sketch=0;fontFamily=Helvetica;fontSize=18;fontColor=#EEEEEE;strokeColor=#E6E6E6;fillColor=#FF0000;" parent="1" vertex="1">
          <mxGeometry x="120" y="415" width="120" height="80" as="geometry" />
        </mxCell>
        <mxCell id="S2QaWsW8-3YmJMbBKtvB-59" style="edgeStyle=orthogonalEdgeStyle;curved=0;rounded=1;sketch=0;orthogonalLoop=1;jettySize=auto;html=1;entryX=0;entryY=0.5;entryDx=0;entryDy=0;fontFamily=Helvetica;fontSize=18;fontColor=#000000;strokeColor=#0B4D6A;" parent="1" source="S2QaWsW8-3YmJMbBKtvB-35" target="S2QaWsW8-3YmJMbBKtvB-58" edge="1">
          <mxGeometry relative="1" as="geometry" />
        </mxCell>
        <mxCell id="S2QaWsW8-3YmJMbBKtvB-60" value="低于键盘高度" style="edgeLabel;html=1;align=center;verticalAlign=middle;resizable=0;points=[];fontSize=18;fontFamily=Helvetica;fontColor=#000000;" parent="S2QaWsW8-3YmJMbBKtvB-59" vertex="1" connectable="0">
          <mxGeometry x="-0.499" y="-2" relative="1" as="geometry">
            <mxPoint x="19" y="-2" as="offset" />
          </mxGeometry>
        </mxCell>
        <mxCell id="S2QaWsW8-3YmJMbBKtvB-68" style="edgeStyle=orthogonalEdgeStyle;curved=0;rounded=1;sketch=0;orthogonalLoop=1;jettySize=auto;html=1;fontFamily=Helvetica;fontSize=18;fontColor=#000000;strokeColor=#0B4D6A;" parent="1" source="S2QaWsW8-3YmJMbBKtvB-35" target="S2QaWsW8-3YmJMbBKtvB-42" edge="1">
          <mxGeometry relative="1" as="geometry">
            <Array as="points">
              <mxPoint x="180" y="690" />
              <mxPoint x="930" y="690" />
            </Array>
          </mxGeometry>
        </mxCell>
        <mxCell id="S2QaWsW8-3YmJMbBKtvB-35" value="焦点框高度" style="rhombus;whiteSpace=wrap;html=1;rounded=0;labelBackgroundColor=none;sketch=0;fontFamily=Helvetica;fontSize=18;fontColor=#EEEEEE;strokeColor=#E6E6E6;fillColor=#FF0000;" parent="1" vertex="1">
          <mxGeometry x="110" y="545" width="140" height="80" as="geometry" />
        </mxCell>
        <mxCell id="S2QaWsW8-3YmJMbBKtvB-42" value="&lt;font color=&quot;#ffffff&quot;&gt;结束&lt;/font&gt;" style="shape=parallelogram;perimeter=parallelogramPerimeter;whiteSpace=wrap;html=1;fixedSize=1;rounded=0;labelBackgroundColor=none;sketch=0;fontFamily=Helvetica;fontSize=18;fontColor=#000000;strokeColor=#E6E6E6;fillColor=#FF0000;" parent="1" vertex="1">
          <mxGeometry x="870" y="415" width="120" height="60" as="geometry" />
        </mxCell>
        <mxCell id="S2QaWsW8-3YmJMbBKtvB-54" style="edgeStyle=orthogonalEdgeStyle;curved=0;rounded=1;sketch=0;orthogonalLoop=1;jettySize=auto;html=1;entryX=0;entryY=0.5;entryDx=0;entryDy=0;fontFamily=Helvetica;fontSize=18;fontColor=#000000;strokeColor=#0B4D6A;" parent="1" source="S2QaWsW8-3YmJMbBKtvB-51" target="S2QaWsW8-3YmJMbBKtvB-45" edge="1">
          <mxGeometry relative="1" as="geometry" />
        </mxCell>
        <mxCell id="S2QaWsW8-3YmJMbBKtvB-56" value="显示" style="edgeLabel;html=1;align=center;verticalAlign=middle;resizable=0;points=[];fontSize=18;fontFamily=Helvetica;fontColor=#000000;" parent="S2QaWsW8-3YmJMbBKtvB-54" vertex="1" connectable="0">
          <mxGeometry x="0.4234" y="-2" relative="1" as="geometry">
            <mxPoint as="offset" />
          </mxGeometry>
        </mxCell>
        <mxCell id="S2QaWsW8-3YmJMbBKtvB-55" style="edgeStyle=orthogonalEdgeStyle;curved=0;rounded=1;sketch=0;orthogonalLoop=1;jettySize=auto;html=1;fontFamily=Helvetica;fontSize=18;fontColor=#000000;strokeColor=#0B4D6A;" parent="1" source="S2QaWsW8-3YmJMbBKtvB-51" target="S2QaWsW8-3YmJMbBKtvB-46" edge="1">
          <mxGeometry relative="1" as="geometry" />
        </mxCell>
        <mxCell id="S2QaWsW8-3YmJMbBKtvB-57" value="滚动到可见区域" style="edgeLabel;html=1;align=center;verticalAlign=middle;resizable=0;points=[];fontSize=18;fontFamily=Helvetica;fontColor=#000000;" parent="S2QaWsW8-3YmJMbBKtvB-55" vertex="1" connectable="0">
          <mxGeometry x="0.3481" y="2" relative="1" as="geometry">
            <mxPoint x="22" y="-51" as="offset" />
          </mxGeometry>
        </mxCell>
        <mxCell id="S2QaWsW8-3YmJMbBKtvB-51" value="回落处理器" style="rounded=1;whiteSpace=wrap;html=1;labelBackgroundColor=none;sketch=0;fontFamily=Helvetica;fontSize=18;fontColor=#FFFFFF;strokeColor=#E6E6E6;fillColor=#FF0000;" parent="1" vertex="1">
          <mxGeometry x="370" y="425" width="120" height="60" as="geometry" />
        </mxCell>
        <mxCell id="S2QaWsW8-3YmJMbBKtvB-63" style="edgeStyle=orthogonalEdgeStyle;curved=0;rounded=1;sketch=0;orthogonalLoop=1;jettySize=auto;html=1;fontFamily=Helvetica;fontSize=18;fontColor=#000000;strokeColor=#0B4D6A;entryX=-0.038;entryY=0.718;entryDx=0;entryDy=0;entryPerimeter=0;" parent="1" source="S2QaWsW8-3YmJMbBKtvB-58" target="S2QaWsW8-3YmJMbBKtvB-46" edge="1">
          <mxGeometry relative="1" as="geometry">
            <mxPoint x="654" y="585" as="targetPoint" />
          </mxGeometry>
        </mxCell>
        <mxCell id="S2QaWsW8-3YmJMbBKtvB-64" value="滚动回原位置" style="edgeLabel;html=1;align=center;verticalAlign=middle;resizable=0;points=[];fontSize=18;fontFamily=Helvetica;fontColor=#000000;" parent="S2QaWsW8-3YmJMbBKtvB-63" vertex="1" connectable="0">
          <mxGeometry x="0.0782" y="2" relative="1" as="geometry">
            <mxPoint as="offset" />
          </mxGeometry>
        </mxCell>
        <mxCell id="S2QaWsW8-3YmJMbBKtvB-65" style="edgeStyle=orthogonalEdgeStyle;curved=0;rounded=1;sketch=0;orthogonalLoop=1;jettySize=auto;html=1;entryX=0;entryY=0.25;entryDx=0;entryDy=0;fontFamily=Helvetica;fontSize=18;fontColor=#000000;strokeColor=#0B4D6A;" parent="1" source="S2QaWsW8-3YmJMbBKtvB-58" target="S2QaWsW8-3YmJMbBKtvB-45" edge="1">
          <mxGeometry relative="1" as="geometry">
            <Array as="points">
              <mxPoint x="530" y="585" />
              <mxPoint x="530" y="325" />
            </Array>
          </mxGeometry>
        </mxCell>
        <mxCell id="S2QaWsW8-3YmJMbBKtvB-66" value="隐藏" style="edgeLabel;html=1;align=center;verticalAlign=middle;resizable=0;points=[];fontSize=18;fontFamily=Helvetica;fontColor=#000000;" parent="S2QaWsW8-3YmJMbBKtvB-65" vertex="1" connectable="0">
          <mxGeometry x="0.4202" y="-4" relative="1" as="geometry">
            <mxPoint x="-1" as="offset" />
          </mxGeometry>
        </mxCell>
        <mxCell id="S2QaWsW8-3YmJMbBKtvB-58" value="弹起处理器" style="rounded=1;whiteSpace=wrap;html=1;labelBackgroundColor=none;sketch=0;fontFamily=Helvetica;fontSize=18;fontColor=#FFFFFF;strokeColor=#E6E6E6;fillColor=#FF0000;" parent="1" vertex="1">
          <mxGeometry x="370" y="555" width="120" height="60" as="geometry" />
        </mxCell>
      </root>
    </mxGraphModel>
  </diagram>
  <diagram id="UTbQzif00bNFKrltUzsM" name="Halaman-2">
    <mxGraphModel dx="1426" dy="794" grid="1" gridSize="10" guides="1" tooltips="1" connect="1" arrows="1" fold="1" page="1" pageScale="1" pageWidth="827" pageHeight="1169" math="0" shadow="0">
      <root>
        <mxCell id="L2mmnC9NN9h3gjrGADmq-0" />
        <mxCell id="L2mmnC9NN9h3gjrGADmq-1" parent="L2mmnC9NN9h3gjrGADmq-0" />
        <mxCell id="NFi4Le9Q8Fj7yvYf3liV-0" value="ServerApi" style="shape=umlLifeline;perimeter=lifelinePerimeter;whiteSpace=wrap;html=1;container=1;collapsible=0;recursiveResize=0;outlineConnect=0;rounded=1;shadow=0;comic=0;labelBackgroundColor=none;strokeWidth=1;fontFamily=Verdana;fontSize=12;align=center;" vertex="1" parent="L2mmnC9NN9h3gjrGADmq-1">
          <mxGeometry x="520" y="80" width="100" height="580" as="geometry" />
        </mxCell>
        <mxCell id="NFi4Le9Q8Fj7yvYf3liV-1" value="" style="html=1;points=[];perimeter=orthogonalPerimeter;" vertex="1" parent="NFi4Le9Q8Fj7yvYf3liV-0">
          <mxGeometry x="45" y="100" width="10" height="20" as="geometry" />
        </mxCell>
        <mxCell id="NFi4Le9Q8Fj7yvYf3liV-2" value="" style="html=1;points=[];perimeter=orthogonalPerimeter;" vertex="1" parent="NFi4Le9Q8Fj7yvYf3liV-0">
          <mxGeometry x="45" y="324" width="10" height="110" as="geometry" />
        </mxCell>
        <mxCell id="NFi4Le9Q8Fj7yvYf3liV-3" value="" style="html=1;points=[];perimeter=orthogonalPerimeter;" vertex="1" parent="NFi4Le9Q8Fj7yvYf3liV-0">
          <mxGeometry x="45" y="242" width="10" height="28" as="geometry" />
        </mxCell>
        <mxCell id="NFi4Le9Q8Fj7yvYf3liV-4" value="" style="html=1;points=[];perimeter=orthogonalPerimeter;" vertex="1" parent="NFi4Le9Q8Fj7yvYf3liV-0">
          <mxGeometry x="45" y="496" width="10" height="50" as="geometry" />
        </mxCell>
        <mxCell id="NFi4Le9Q8Fj7yvYf3liV-5" value="offlineSys" style="shape=umlLifeline;perimeter=lifelinePerimeter;whiteSpace=wrap;html=1;container=1;collapsible=0;recursiveResize=0;outlineConnect=0;rounded=1;shadow=0;comic=0;labelBackgroundColor=none;strokeWidth=1;fontFamily=Verdana;fontSize=12;align=center;" vertex="1" parent="L2mmnC9NN9h3gjrGADmq-1">
          <mxGeometry x="240" y="80" width="100" height="580" as="geometry" />
        </mxCell>
        <mxCell id="NFi4Le9Q8Fj7yvYf3liV-6" value="" style="html=1;points=[];perimeter=orthogonalPerimeter;" vertex="1" parent="NFi4Le9Q8Fj7yvYf3liV-5">
          <mxGeometry x="45" y="50" width="10" height="90" as="geometry" />
        </mxCell>
        <mxCell id="NFi4Le9Q8Fj7yvYf3liV-7" value="" style="html=1;points=[];perimeter=orthogonalPerimeter;" vertex="1" parent="NFi4Le9Q8Fj7yvYf3liV-5">
          <mxGeometry x="45" y="167" width="10" height="113" as="geometry" />
        </mxCell>
        <mxCell id="NFi4Le9Q8Fj7yvYf3liV-8" value="下发数据" style="html=1;verticalAlign=bottom;endArrow=block;entryX=0;entryY=0;" edge="1" parent="NFi4Le9Q8Fj7yvYf3liV-5">
          <mxGeometry relative="1" as="geometry">
            <mxPoint x="-90" y="172" as="sourcePoint" />
            <mxPoint x="45" y="172" as="targetPoint" />
          </mxGeometry>
        </mxCell>
        <mxCell id="NFi4Le9Q8Fj7yvYf3liV-9" value="return" style="html=1;verticalAlign=bottom;endArrow=open;dashed=1;endSize=8;exitX=0;exitY=0.95;" edge="1" parent="NFi4Le9Q8Fj7yvYf3liV-5">
          <mxGeometry relative="1" as="geometry">
            <mxPoint x="-90" y="277" as="targetPoint" />
            <mxPoint x="45" y="277" as="sourcePoint" />
          </mxGeometry>
        </mxCell>
        <mxCell id="NFi4Le9Q8Fj7yvYf3liV-10" value="" style="html=1;points=[];perimeter=orthogonalPerimeter;" vertex="1" parent="NFi4Le9Q8Fj7yvYf3liV-5">
          <mxGeometry x="45" y="487" width="10" height="69" as="geometry" />
        </mxCell>
        <mxCell id="NFi4Le9Q8Fj7yvYf3liV-11" value="更改在离线状态" style="html=1;verticalAlign=bottom;startArrow=oval;endArrow=block;startSize=8;" edge="1" parent="NFi4Le9Q8Fj7yvYf3liV-5" target="NFi4Le9Q8Fj7yvYf3liV-10">
          <mxGeometry relative="1" as="geometry">
            <mxPoint x="-90" y="487" as="sourcePoint" />
          </mxGeometry>
        </mxCell>
        <mxCell id="NFi4Le9Q8Fj7yvYf3liV-12" value="Service" style="shape=umlLifeline;perimeter=lifelinePerimeter;whiteSpace=wrap;html=1;container=1;collapsible=0;recursiveResize=0;outlineConnect=0;rounded=1;shadow=0;comic=0;labelBackgroundColor=none;strokeWidth=1;fontFamily=Verdana;fontSize=12;align=center;" vertex="1" parent="L2mmnC9NN9h3gjrGADmq-1">
          <mxGeometry x="680" y="80" width="100" height="580" as="geometry" />
        </mxCell>
        <mxCell id="NFi4Le9Q8Fj7yvYf3liV-13" value="" style="html=1;points=[];perimeter=orthogonalPerimeter;" vertex="1" parent="NFi4Le9Q8Fj7yvYf3liV-12">
          <mxGeometry x="45" y="334" width="10" height="40" as="geometry" />
        </mxCell>
        <mxCell id="NFi4Le9Q8Fj7yvYf3liV-14" value="dataBase" style="shape=umlLifeline;perimeter=lifelinePerimeter;whiteSpace=wrap;html=1;container=1;collapsible=0;recursiveResize=0;outlineConnect=0;rounded=1;shadow=0;comic=0;labelBackgroundColor=none;strokeWidth=1;fontFamily=Verdana;fontSize=12;align=center;" vertex="1" parent="L2mmnC9NN9h3gjrGADmq-1">
          <mxGeometry x="840" y="80" width="100" height="580" as="geometry" />
        </mxCell>
        <mxCell id="NFi4Le9Q8Fj7yvYf3liV-15" value="" style="html=1;points=[];perimeter=orthogonalPerimeter;" vertex="1" parent="NFi4Le9Q8Fj7yvYf3liV-14">
          <mxGeometry x="45" y="60" width="10" height="20" as="geometry" />
        </mxCell>
        <mxCell id="NFi4Le9Q8Fj7yvYf3liV-16" value="" style="html=1;points=[];perimeter=orthogonalPerimeter;" vertex="1" parent="NFi4Le9Q8Fj7yvYf3liV-14">
          <mxGeometry x="45" y="192" width="10" height="20" as="geometry" />
        </mxCell>
        <mxCell id="NFi4Le9Q8Fj7yvYf3liV-17" value="" style="html=1;points=[];perimeter=orthogonalPerimeter;" vertex="1" parent="NFi4Le9Q8Fj7yvYf3liV-14">
          <mxGeometry x="45" y="339" width="10" height="25" as="geometry" />
        </mxCell>
        <mxCell id="NFi4Le9Q8Fj7yvYf3liV-18" value="查库操作" style="html=1;verticalAlign=bottom;endArrow=block;entryX=0;entryY=0;" edge="1" parent="NFi4Le9Q8Fj7yvYf3liV-14" target="NFi4Le9Q8Fj7yvYf3liV-17">
          <mxGeometry relative="1" as="geometry">
            <mxPoint x="-100" y="339" as="sourcePoint" />
          </mxGeometry>
        </mxCell>
        <mxCell id="NFi4Le9Q8Fj7yvYf3liV-19" value="View" style="shape=umlLifeline;perimeter=lifelinePerimeter;whiteSpace=wrap;html=1;container=1;collapsible=0;recursiveResize=0;outlineConnect=0;rounded=1;shadow=0;comic=0;labelBackgroundColor=none;strokeWidth=1;fontFamily=Verdana;fontSize=12;align=center;" vertex="1" parent="L2mmnC9NN9h3gjrGADmq-1">
          <mxGeometry x="100" y="80" width="100" height="580" as="geometry" />
        </mxCell>
        <mxCell id="NFi4Le9Q8Fj7yvYf3liV-20" value="" style="html=1;points=[];perimeter=orthogonalPerimeter;" vertex="1" parent="NFi4Le9Q8Fj7yvYf3liV-19">
          <mxGeometry x="45" y="50" width="10" height="510" as="geometry" />
        </mxCell>
        <mxCell id="NFi4Le9Q8Fj7yvYf3liV-21" value="初始化" style="html=1;verticalAlign=bottom;endArrow=block;entryX=0;entryY=0;" edge="1" parent="L2mmnC9NN9h3gjrGADmq-1" source="NFi4Le9Q8Fj7yvYf3liV-19" target="NFi4Le9Q8Fj7yvYf3liV-6">
          <mxGeometry relative="1" as="geometry">
            <mxPoint x="515" y="130" as="sourcePoint" />
          </mxGeometry>
        </mxCell>
        <mxCell id="NFi4Le9Q8Fj7yvYf3liV-22" value="return" style="html=1;verticalAlign=bottom;endArrow=open;dashed=1;endSize=8;exitX=0;exitY=0.95;" edge="1" parent="L2mmnC9NN9h3gjrGADmq-1" source="NFi4Le9Q8Fj7yvYf3liV-6" target="NFi4Le9Q8Fj7yvYf3liV-19">
          <mxGeometry relative="1" as="geometry">
            <mxPoint x="160" y="206" as="targetPoint" />
            <Array as="points" />
          </mxGeometry>
        </mxCell>
        <mxCell id="NFi4Le9Q8Fj7yvYf3liV-23" value="初始化数据库" style="html=1;verticalAlign=bottom;endArrow=block;entryX=0;entryY=0;" edge="1" parent="L2mmnC9NN9h3gjrGADmq-1" source="NFi4Le9Q8Fj7yvYf3liV-5" target="NFi4Le9Q8Fj7yvYf3liV-15">
          <mxGeometry relative="1" as="geometry">
            <mxPoint x="935" y="140" as="sourcePoint" />
          </mxGeometry>
        </mxCell>
        <mxCell id="NFi4Le9Q8Fj7yvYf3liV-24" value="return" style="html=1;verticalAlign=bottom;endArrow=open;dashed=1;endSize=8;exitX=0;exitY=0.95;" edge="1" parent="L2mmnC9NN9h3gjrGADmq-1" source="NFi4Le9Q8Fj7yvYf3liV-15">
          <mxGeometry relative="1" as="geometry">
            <mxPoint x="290" y="159" as="targetPoint" />
          </mxGeometry>
        </mxCell>
        <mxCell id="NFi4Le9Q8Fj7yvYf3liV-25" value="return" style="html=1;verticalAlign=bottom;endArrow=open;dashed=1;endSize=8;exitX=0;exitY=0.95;" edge="1" parent="L2mmnC9NN9h3gjrGADmq-1" source="NFi4Le9Q8Fj7yvYf3liV-1" target="NFi4Le9Q8Fj7yvYf3liV-5">
          <mxGeometry relative="1" as="geometry">
            <mxPoint x="495" y="246" as="targetPoint" />
          </mxGeometry>
        </mxCell>
        <mxCell id="NFi4Le9Q8Fj7yvYf3liV-26" value="ajax" style="shape=umlLifeline;perimeter=lifelinePerimeter;whiteSpace=wrap;html=1;container=1;collapsible=0;recursiveResize=0;outlineConnect=0;rounded=1;shadow=0;comic=0;labelBackgroundColor=none;strokeWidth=1;fontFamily=Verdana;fontSize=12;align=center;" vertex="1" parent="L2mmnC9NN9h3gjrGADmq-1">
          <mxGeometry x="370" y="80" width="100" height="580" as="geometry" />
        </mxCell>
        <mxCell id="NFi4Le9Q8Fj7yvYf3liV-27" value="" style="html=1;points=[];perimeter=orthogonalPerimeter;" vertex="1" parent="NFi4Le9Q8Fj7yvYf3liV-26">
          <mxGeometry x="45" y="182" width="10" height="40" as="geometry" />
        </mxCell>
        <mxCell id="NFi4Le9Q8Fj7yvYf3liV-28" value="" style="html=1;points=[];perimeter=orthogonalPerimeter;" vertex="1" parent="NFi4Le9Q8Fj7yvYf3liV-26">
          <mxGeometry x="45" y="314" width="10" height="140" as="geometry" />
        </mxCell>
        <mxCell id="NFi4Le9Q8Fj7yvYf3liV-29" value="发起请求" style="html=1;verticalAlign=bottom;endArrow=block;entryX=0;entryY=0;" edge="1" parent="NFi4Le9Q8Fj7yvYf3liV-26" target="NFi4Le9Q8Fj7yvYf3liV-28">
          <mxGeometry relative="1" as="geometry">
            <mxPoint x="-210" y="314" as="sourcePoint" />
          </mxGeometry>
        </mxCell>
        <mxCell id="NFi4Le9Q8Fj7yvYf3liV-30" value="在线直接发送网络请求返回" style="edgeStyle=orthogonalEdgeStyle;rounded=0;orthogonalLoop=1;jettySize=auto;html=1;exitX=1;exitY=0.2;exitDx=0;exitDy=0;exitPerimeter=0;" edge="1" parent="NFi4Le9Q8Fj7yvYf3liV-26" source="NFi4Le9Q8Fj7yvYf3liV-28" target="NFi4Le9Q8Fj7yvYf3liV-28">
          <mxGeometry relative="1" as="geometry">
            <Array as="points">
              <mxPoint x="75" y="330" />
              <mxPoint x="75" y="394" />
            </Array>
          </mxGeometry>
        </mxCell>
        <mxCell id="NFi4Le9Q8Fj7yvYf3liV-31" value="注入依赖" style="html=1;verticalAlign=bottom;endArrow=block;entryX=0;entryY=0;" edge="1" parent="L2mmnC9NN9h3gjrGADmq-1" source="NFi4Le9Q8Fj7yvYf3liV-5" target="NFi4Le9Q8Fj7yvYf3liV-1">
          <mxGeometry relative="1" as="geometry">
            <mxPoint x="440" y="180" as="sourcePoint" />
          </mxGeometry>
        </mxCell>
        <mxCell id="NFi4Le9Q8Fj7yvYf3liV-32" value="网络下载BO数据" style="html=1;verticalAlign=bottom;endArrow=block;entryX=0;entryY=0;" edge="1" parent="L2mmnC9NN9h3gjrGADmq-1" target="NFi4Le9Q8Fj7yvYf3liV-27">
          <mxGeometry relative="1" as="geometry">
            <mxPoint x="295" y="262" as="sourcePoint" />
          </mxGeometry>
        </mxCell>
        <mxCell id="NFi4Le9Q8Fj7yvYf3liV-33" value="return" style="html=1;verticalAlign=bottom;endArrow=open;dashed=1;endSize=8;exitX=0;exitY=0.95;" edge="1" parent="L2mmnC9NN9h3gjrGADmq-1" source="NFi4Le9Q8Fj7yvYf3liV-27">
          <mxGeometry relative="1" as="geometry">
            <mxPoint x="289.5" y="300" as="targetPoint" />
          </mxGeometry>
        </mxCell>
        <mxCell id="NFi4Le9Q8Fj7yvYf3liV-34" value="分表存库" style="html=1;verticalAlign=bottom;endArrow=block;entryX=0;entryY=0;exitX=0;exitY=0.25;exitDx=0;exitDy=0;exitPerimeter=0;" edge="1" parent="L2mmnC9NN9h3gjrGADmq-1" source="NFi4Le9Q8Fj7yvYf3liV-27" target="NFi4Le9Q8Fj7yvYf3liV-16">
          <mxGeometry relative="1" as="geometry">
            <mxPoint x="935" y="242" as="sourcePoint" />
          </mxGeometry>
        </mxCell>
        <mxCell id="NFi4Le9Q8Fj7yvYf3liV-35" value="return" style="html=1;verticalAlign=bottom;endArrow=open;dashed=1;endSize=8;" edge="1" parent="L2mmnC9NN9h3gjrGADmq-1" source="NFi4Le9Q8Fj7yvYf3liV-16">
          <mxGeometry relative="1" as="geometry">
            <mxPoint x="419.5" y="292" as="targetPoint" />
            <Array as="points">
              <mxPoint x="880" y="292" />
            </Array>
          </mxGeometry>
        </mxCell>
        <mxCell id="NFi4Le9Q8Fj7yvYf3liV-36" value="离线转发到Server" style="html=1;verticalAlign=bottom;endArrow=block;entryX=0;entryY=0;" edge="1" parent="L2mmnC9NN9h3gjrGADmq-1" source="NFi4Le9Q8Fj7yvYf3liV-28" target="NFi4Le9Q8Fj7yvYf3liV-2">
          <mxGeometry relative="1" as="geometry">
            <mxPoint x="430" y="404" as="sourcePoint" />
          </mxGeometry>
        </mxCell>
        <mxCell id="NFi4Le9Q8Fj7yvYf3liV-37" value="动态接口转发到业务层" style="html=1;verticalAlign=bottom;endArrow=block;entryX=0;entryY=0;" edge="1" parent="L2mmnC9NN9h3gjrGADmq-1" target="NFi4Le9Q8Fj7yvYf3liV-13">
          <mxGeometry relative="1" as="geometry">
            <mxPoint x="580" y="414" as="sourcePoint" />
          </mxGeometry>
        </mxCell>
        <mxCell id="NFi4Le9Q8Fj7yvYf3liV-38" value="查库完成" style="html=1;verticalAlign=bottom;endArrow=open;dashed=1;endSize=8;exitX=0;exitY=0.95;" edge="1" parent="L2mmnC9NN9h3gjrGADmq-1" source="NFi4Le9Q8Fj7yvYf3liV-17">
          <mxGeometry relative="1" as="geometry">
            <mxPoint x="729.5" y="442.75" as="targetPoint" />
          </mxGeometry>
        </mxCell>
        <mxCell id="NFi4Le9Q8Fj7yvYf3liV-39" value="业务处理完毕" style="html=1;verticalAlign=bottom;endArrow=open;dashed=1;endSize=8;exitX=0;exitY=0.95;" edge="1" parent="L2mmnC9NN9h3gjrGADmq-1" source="NFi4Le9Q8Fj7yvYf3liV-13">
          <mxGeometry relative="1" as="geometry">
            <mxPoint x="569.5" y="452" as="targetPoint" />
          </mxGeometry>
        </mxCell>
        <mxCell id="NFi4Le9Q8Fj7yvYf3liV-40" value="静态接口直接查库" style="html=1;verticalAlign=bottom;endArrow=block;entryX=0;entryY=0;" edge="1" parent="L2mmnC9NN9h3gjrGADmq-1" target="NFi4Le9Q8Fj7yvYf3liV-41">
          <mxGeometry relative="1" as="geometry">
            <mxPoint x="569.5" y="474" as="sourcePoint" />
          </mxGeometry>
        </mxCell>
        <mxCell id="NFi4Le9Q8Fj7yvYf3liV-41" value="" style="html=1;points=[];perimeter=orthogonalPerimeter;" vertex="1" parent="L2mmnC9NN9h3gjrGADmq-1">
          <mxGeometry x="885" y="474" width="10" height="30" as="geometry" />
        </mxCell>
        <mxCell id="NFi4Le9Q8Fj7yvYf3liV-42" value="查库完成" style="html=1;verticalAlign=bottom;endArrow=open;dashed=1;endSize=8;exitX=0;exitY=0.95;entryX=0.9;entryY=0.891;entryDx=0;entryDy=0;entryPerimeter=0;" edge="1" parent="L2mmnC9NN9h3gjrGADmq-1" source="NFi4Le9Q8Fj7yvYf3liV-41" target="NFi4Le9Q8Fj7yvYf3liV-2">
          <mxGeometry relative="1" as="geometry">
            <mxPoint x="580" y="503" as="targetPoint" />
          </mxGeometry>
        </mxCell>
        <mxCell id="NFi4Le9Q8Fj7yvYf3liV-43" value="模拟接口返回" style="html=1;verticalAlign=bottom;endArrow=open;dashed=1;endSize=8;exitX=0;exitY=0.95;" edge="1" parent="L2mmnC9NN9h3gjrGADmq-1" source="NFi4Le9Q8Fj7yvYf3liV-28">
          <mxGeometry relative="1" as="geometry">
            <mxPoint x="149.5" y="527" as="targetPoint" />
          </mxGeometry>
        </mxCell>
        <mxCell id="NFi4Le9Q8Fj7yvYf3liV-44" value="转发处理完成" style="html=1;verticalAlign=bottom;endArrow=open;dashed=1;endSize=8;exitX=0;exitY=0.95;" edge="1" parent="L2mmnC9NN9h3gjrGADmq-1" source="NFi4Le9Q8Fj7yvYf3liV-2">
          <mxGeometry relative="1" as="geometry">
            <mxPoint x="420" y="509" as="targetPoint" />
          </mxGeometry>
        </mxCell>
        <mxCell id="NFi4Le9Q8Fj7yvYf3liV-45" value="更改数据准备完成状态" style="html=1;verticalAlign=bottom;endArrow=block;entryX=0;entryY=0;" edge="1" parent="L2mmnC9NN9h3gjrGADmq-1" target="NFi4Le9Q8Fj7yvYf3liV-3">
          <mxGeometry relative="1" as="geometry">
            <mxPoint x="295" y="322" as="sourcePoint" />
            <Array as="points">
              <mxPoint x="390" y="322" />
            </Array>
          </mxGeometry>
        </mxCell>
        <mxCell id="NFi4Le9Q8Fj7yvYf3liV-46" value="return" style="html=1;verticalAlign=bottom;endArrow=open;dashed=1;endSize=8;exitX=0;exitY=0.95;" edge="1" parent="L2mmnC9NN9h3gjrGADmq-1" source="NFi4Le9Q8Fj7yvYf3liV-3" target="NFi4Le9Q8Fj7yvYf3liV-5">
          <mxGeometry relative="1" as="geometry">
            <mxPoint x="295" y="340" as="targetPoint" />
            <Array as="points">
              <mxPoint x="430" y="350" />
            </Array>
          </mxGeometry>
        </mxCell>
        <mxCell id="NFi4Le9Q8Fj7yvYf3liV-47" value="return" style="html=1;verticalAlign=bottom;endArrow=open;dashed=1;endSize=8;" edge="1" parent="L2mmnC9NN9h3gjrGADmq-1">
          <mxGeometry relative="1" as="geometry">
            <mxPoint x="660" y="425" as="sourcePoint" />
            <mxPoint x="580" y="425" as="targetPoint" />
          </mxGeometry>
        </mxCell>
        <mxCell id="NFi4Le9Q8Fj7yvYf3liV-48" value="return" style="html=1;verticalAlign=bottom;endArrow=open;dashed=1;endSize=8;" edge="1" parent="L2mmnC9NN9h3gjrGADmq-1">
          <mxGeometry relative="1" as="geometry">
            <mxPoint x="289.5" y="636" as="sourcePoint" />
            <mxPoint x="149.5" y="636" as="targetPoint" />
            <Array as="points">
              <mxPoint x="220" y="636" />
            </Array>
          </mxGeometry>
        </mxCell>
        <mxCell id="NFi4Le9Q8Fj7yvYf3liV-49" value="更改ServerApi状态" style="html=1;verticalAlign=bottom;endArrow=block;entryX=0;entryY=0;" edge="1" parent="L2mmnC9NN9h3gjrGADmq-1" target="NFi4Le9Q8Fj7yvYf3liV-4">
          <mxGeometry relative="1" as="geometry">
            <mxPoint x="289.5" y="576" as="sourcePoint" />
          </mxGeometry>
        </mxCell>
        <mxCell id="NFi4Le9Q8Fj7yvYf3liV-50" value="return" style="html=1;verticalAlign=bottom;endArrow=open;dashed=1;endSize=8;exitX=0;exitY=0.95;" edge="1" parent="L2mmnC9NN9h3gjrGADmq-1" source="NFi4Le9Q8Fj7yvYf3liV-4">
          <mxGeometry relative="1" as="geometry">
            <mxPoint x="289.5" y="623.5" as="targetPoint" />
          </mxGeometry>
        </mxCell>
      </root>
    </mxGraphModel>
  </diagram>
</mxfile>
